<?xml version="1.0" standalone="no"?>
<!DOCTYPE svg PUBLIC "-//W3C//DTD SVG 20010904//EN"
 "http://www.w3.org/TR/2001/REC-SVG-20010904/DTD/svg10.dtd">
<svg version="1.0" xmlns="http://www.w3.org/2000/svg"
 width="700.000000pt" height="700.000000pt" viewBox="0 0 700.000000 700.000000"
 preserveAspectRatio="xMidYMid meet">
<metadata>
Created by potrace 1.11, written by Peter Selinger 2001-2013
</metadata>
<g transform="translate(0.000000,700.000000) scale(0.100000,-0.100000)"
fill="#000000" stroke="none">
<path d="M4268 5686 c-1 -2 -34 -6 -73 -9 -297 -23 -644 -165 -895 -366 -66
-53 -183 -163 -232 -219 -44 -50 -145 -189 -180 -247 -29 -48 -35 -54 -58 -49
-56 13 -336 13 -415 -1 -452 -77 -828 -379 -1000 -804 l-23 -55 -118 -2 c-466
-7 -908 -282 -1122 -699 -73 -141 -121 -287 -139 -420 -14 -106 -8 -342 11
-434 58 -282 192 -526 386 -707 71 -66 97 -86 175 -138 159 -107 322 -171 516
-205 99 -18 221 -19 2400 -19 1263 0 2314 3 2335 8 21 5 55 11 74 14 78 12
108 19 195 48 442 147 772 523 871 993 27 128 27 364 0 499 -86 425 -372 777
-774 952 l-77 34 -1 82 c0 85 -13 258 -19 268 -2 3 -6 23 -9 44 -21 129 -89
332 -159 471 -179 360 -501 661 -877 822 -151 64 -269 96 -475 128 -43 7 -311
16 -317 11z m312 -451 c296 -53 542 -184 745 -396 176 -184 298 -425 341 -673
19 -108 21 -180 11 -427 l-8 -186 178 -62 c258 -91 339 -137 463 -261 54 -54
143 -171 145 -190 1 -3 10 -23 22 -45 27 -53 59 -149 68 -205 4 -25 9 -54 11
-65 6 -28 5 -185 -1 -217 -3 -16 -7 -38 -9 -50 -3 -18 -19 -78 -31 -118 -29
-94 -115 -233 -195 -316 -114 -118 -231 -189 -397 -241 l-88 -28 -2330 0
c-2202 0 -2334 1 -2395 18 -357 97 -613 379 -664 730 -8 53 -9 194 -1 242 55
358 311 639 665 731 75 20 191 23 375 10 72 -5 148 -9 170 -10 l40 -1 43 125
c86 248 124 331 196 427 201 267 536 394 866 328 13 -2 40 -7 60 -10 19 -3 75
-14 124 -24 88 -18 88 -18 108 3 10 11 26 34 34 51 46 93 155 275 203 339 174
232 389 386 661 474 96 31 119 36 200 48 25 3 47 7 49 9 5 6 302 -3 341 -10z"/>
</g>
</svg>
